{"accessors" : [{"bufferView" : 0, "byteOffset" : 0, "componentType" : 5125, "count" : 1949835, "type" : "SCALAR", "max" : [320152], "min" : [0]}, {"bufferView" : 1, "byteOffset" : 0, "componentType" : 5126, "count" : 320153, "type" : "VEC3", "max" : [0.174627006053925, 0.251394987106323, 0.221656993031502], "min" : [-0.430298000574112, -0.259124010801315, -0.220476999878883]}, {"bufferView" : 1, "byteOffset" : 12, "componentType" : 5126, "count" : 320153, "type" : "VEC3", "max" : [0.999985575675964, 0.999992966651917, 0.999396681785584], "min" : [-0.999956727027893, -0.999995410442352, -0.999999105930328]}], "asset" : {"generator" : "Aspose.3D 20.2.1", "version" : "2.0"}, "buffers" : [{"uri" : "buffer.bin", "byteLength" : 15483020}], "bufferViews" : [{"buffer" : 0, "byteOffset" : 0, "byteLength" : 7799340, "target" : 34963}, {"buffer" : 0, "byteOffset" : 7799344, "byteLength" : 7683672, "byteStride" : 24, "target" : 34962}], "meshes" : [{"primitives" : [{"attributes" : {"POSITION" : 1, "NORMAL" : 2}, "indices" : 0, "mode" : 4}]}], "nodes" : [{"mesh" : 0, "name" : ""}], "scene" : 0, "scenes" : [{"nodes" : [0]}]}