{"accessors" : [{"bufferView" : 0, "byteOffset" : 0, "componentType" : 5125, "count" : 627444, "type" : "SCALAR", "max" : [104121], "min" : [0]}, {"bufferView" : 1, "byteOffset" : 0, "componentType" : 5126, "count" : 104122, "type" : "VEC3", "max" : [1.44686996936798, 2.08217906951904, 1.8269749879837], "min" : [-3.61865592002869, -2.17008399963379, -1.71618604660034]}, {"bufferView" : 1, "byteOffset" : 12, "componentType" : 5126, "count" : 104122, "type" : "VEC3", "max" : [0.999934911727905, 0.999950230121613, 0.999895036220551], "min" : [-0.999997019767761, -0.999996542930603, -0.999975204467773]}], "asset" : {"generator" : "Aspose.3D 20.2.1", "version" : "2.0"}, "buffers" : [{"uri" : "buffer.bin", "byteLength" : 5008712}], "bufferViews" : [{"buffer" : 0, "byteOffset" : 0, "byteLength" : 2509776, "target" : 34963}, {"buffer" : 0, "byteOffset" : 2509780, "byteLength" : 2498928, "byteStride" : 24, "target" : 34962}], "meshes" : [{"primitives" : [{"attributes" : {"POSITION" : 1, "NORMAL" : 2}, "indices" : 0, "mode" : 4}]}], "nodes" : [{"mesh" : 0, "name" : ""}], "scene" : 0, "scenes" : [{"nodes" : [0]}]}